<svg width="43" height="43" viewBox="0 0 43 43" fill="none" xmlns="http://www.w3.org/2000/svg">
<path d="M35.0747 9.09805L7.63727 19.7234C6.74857 20.0676 6.80241 21.3349 7.71722 21.6033L14.6894 23.6493L17.2914 31.8542C17.5632 32.7113 18.6561 32.9711 19.2887 32.3291L22.8935 28.6714L29.9664 33.8307C30.832 34.4621 32.0647 33.993 32.2844 32.9486L36.9689 10.6921C37.1983 9.60194 36.119 8.69364 35.0747 9.09805ZM31.6348 14.0373L18.8902 25.237C18.7632 25.3486 18.6824 25.5031 18.6635 25.6706L18.1728 30.0053C18.1568 30.1466 17.9577 30.1653 17.9152 30.0295L15.8964 23.565C15.804 23.2691 15.9245 22.9484 16.1895 22.7851L31.2394 13.5093C31.5855 13.2958 31.9399 13.7693 31.6348 14.0373Z" fill="white"/>
</svg>
