<svg width="43" height="43" viewBox="0 0 43 43" fill="none" xmlns="http://www.w3.org/2000/svg">
<path d="M12.5798 14.7696C13.4173 16.8269 14.4787 18.7665 15.8767 20.5078C16.0621 20.7395 16.2959 20.9456 16.5421 21.1133C16.9017 21.359 17.2411 21.2726 17.3873 20.8634C17.542 20.434 17.6839 19.5637 17.6923 19.1127C17.7154 17.9344 17.6889 17.1622 17.6252 15.9854C17.584 15.2316 17.3146 14.5698 16.1999 14.37C15.8557 14.3081 15.8237 14.0263 16.0449 13.7451C16.5053 13.1598 17.1467 13.0665 17.8422 13.0296C18.9694 12.969 20.1008 13.0184 21.2294 13.0296C21.6891 13.0338 22.1516 13.0706 22.6043 13.1688C23.1948 13.2968 23.5111 13.7089 23.6084 14.2823C23.6587 14.5781 23.6847 14.8822 23.6776 15.1815C23.6482 16.4677 23.586 17.7531 23.5713 19.0386C23.565 19.5432 23.602 20.0603 23.7105 20.5517C23.8623 21.2365 24.3311 21.4084 24.8104 20.9136C25.4191 20.2852 25.9558 19.578 26.4596 18.8598C27.3748 17.5535 28.0583 16.1198 28.6468 14.6416C28.9511 13.8788 29.1842 13.7131 30.009 13.7111C31.5595 13.7076 33.1101 13.7062 34.6606 13.7111C34.9356 13.7125 35.2231 13.7382 35.4827 13.8204C35.9039 13.954 36.0711 14.2957 35.9725 14.7294C35.7423 15.7455 35.1902 16.6092 34.599 17.4395C33.6502 18.7716 32.6559 20.0717 31.6848 21.3884C31.561 21.5562 31.4519 21.735 31.3504 21.9166C30.9872 22.5695 31.0124 22.9355 31.5421 23.4791C32.3852 24.3442 33.2878 25.1535 34.1043 26.0423C34.6977 26.6889 35.2469 27.3904 35.7171 28.1288C36.3119 29.0628 35.9445 29.9425 34.8334 30.0991C34.1345 30.1972 30.7201 30.0998 30.5437 30.0991C29.6257 30.0949 28.8211 29.7782 28.1731 29.1581C27.4524 28.4678 26.7975 27.7105 26.1055 26.9902C25.897 26.773 25.6745 26.5649 25.4346 26.3832C24.8685 25.9538 24.3129 26.0491 24.0484 26.7104C23.8225 27.2783 23.6272 28.7697 23.6181 28.8971C23.5706 29.5631 23.1444 29.9877 22.3943 30.0287C20.2288 30.1457 18.1304 29.9055 16.1756 28.8637C14.5187 27.9812 13.1956 26.7333 12.0495 25.2781C10.2289 22.9666 8.79091 20.4258 7.47803 17.8104C7.41094 17.6767 6.08119 14.8622 6.04546 14.7292C5.92668 14.2841 6.03748 13.8588 6.4156 13.7125C6.65132 13.6212 11.0356 13.7122 11.1085 13.716C11.808 13.7537 12.2851 14.0473 12.5798 14.7696Z" fill="white"/>
</svg>
