<svg width="43" height="43" viewBox="0 0 43 43" fill="none" xmlns="http://www.w3.org/2000/svg">
<path fill-rule="evenodd" clip-rule="evenodd" d="M22.3421 35.0213C29.9053 35.0213 36.0365 28.8967 36.0365 21.3417C36.0365 13.7867 29.9053 7.66214 22.3421 7.66214C14.7789 7.66214 8.64766 13.7867 8.64766 21.3417C8.64766 24.4459 9.68277 27.3087 11.427 29.6043L9.65462 32.6708H14.6644C16.8542 34.1545 19.4968 35.0213 22.3421 35.0213Z" fill="#1BD741"/>
<path d="M7 36L9.10103 28.5459C7.74995 26.2531 7.03859 23.6444 7.03859 20.9645C7.03859 12.713 13.7589 6 22.0193 6C30.2798 6 37 12.713 37 20.9645C37 29.216 30.2798 35.929 22.0193 35.929C19.4455 35.929 16.9251 35.2709 14.6955 34.0212L7 36ZM15.0889 31.2987L15.5475 31.5784C17.4914 32.7639 19.7294 33.3905 22.0193 33.3905C28.8785 33.3905 34.4588 27.8162 34.4588 20.9645C34.4588 14.1128 28.8785 8.53848 22.0193 8.53848C15.1602 8.53848 9.57982 14.1128 9.57982 20.9645C9.57982 23.3519 10.2591 25.6703 11.544 27.669L11.8528 28.1493L10.6429 32.442L15.0889 31.2987Z" fill="white"/>
<path d="M17.8111 13.9996L16.839 13.9467C16.5337 13.93 16.2342 14.0319 16.0034 14.2322C15.5321 14.641 14.7786 15.4313 14.5472 16.4612C14.202 17.9967 14.7354 19.8771 16.1159 21.7575C17.4963 23.6378 20.0689 26.6464 24.618 27.9313C26.0839 28.3454 27.237 28.0662 28.1268 27.4977C28.8314 27.0475 29.3172 26.3247 29.4923 25.5077L29.6475 24.7836C29.6968 24.5534 29.5798 24.3199 29.3658 24.2214L26.0805 22.7087C25.8672 22.6106 25.6143 22.6726 25.4709 22.8583L24.1812 24.5284C24.0838 24.6546 23.917 24.7046 23.7664 24.6518C22.8832 24.3417 19.9246 23.104 18.3012 19.9803C18.2308 19.8449 18.2483 19.6804 18.3482 19.5649L19.5808 18.1405C19.7067 17.9951 19.7385 17.7906 19.6629 17.6138L18.2467 14.3043C18.1713 14.1281 18.0024 14.01 17.8111 13.9996Z" fill="white"/>
</svg>
